<svg xmlns="http://www.w3.org/2000/svg" viewBox="0 0 400 400" width="400" height="400">
  <title>Closette — Ivory Noir</title>
  <defs>
    <filter id="grain-fx">
      <feTurbulence type="fractalNoise" baseFrequency="1.8" numOctaves="2" seed="4"/>
      <feColorMatrix values="0 0 0 0 0.2  0 0 0 0 0.15  0 0 0 0 0.1  0 0 0 0.18 0"/>
      <feComposite operator="in" in2="SourceGraphic"/>
    </filter>
    <filter id="bleed-fx" x="-10%" y="-10%" width="120%" height="120%">
      <feTurbulence type="fractalNoise" baseFrequency="0.04" numOctaves="2" seed="3"/>
      <feDisplacementMap in="SourceGraphic" scale="2.5"/>
    </filter>
    <g id="damask">
      <path d="M0 -18 Q 8 -10 0 0 Q -8 -10 0 -18 Z" fill="#0a0806" opacity="0.95"/>
      <path d="M0 0 Q 8 10 0 18 Q -8 10 0 0 Z" fill="#0a0806" opacity="0.95"/>
      <path d="M-18 0 Q -10 -8 0 0 Q -10 8 -18 0 Z" fill="#0a0806" opacity="0.9"/>
      <path d="M18 0 Q 10 -8 0 0 Q 10 8 18 0 Z" fill="#0a0806" opacity="0.9"/>
      <path d="M0 -17 Q 13 -23 16 -12 Q 14 -6 7 -8" fill="none" stroke="#0a0806" stroke-width="1.1" stroke-linecap="round" opacity="0.85"/>
      <path d="M0 -17 Q -13 -23 -16 -12 Q -14 -6 -7 -8" fill="none" stroke="#0a0806" stroke-width="1.1" stroke-linecap="round" opacity="0.85"/>
      <path d="M0 17 Q 13 23 16 12 Q 14 6 7 8" fill="none" stroke="#0a0806" stroke-width="1.1" stroke-linecap="round" opacity="0.85"/>
      <path d="M0 17 Q -13 23 -16 12 Q -14 6 -7 8" fill="none" stroke="#0a0806" stroke-width="1.1" stroke-linecap="round" opacity="0.85"/>
      <circle cx="0" cy="-24" r="1.2" fill="#0a0806" opacity="0.75"/>
      <circle cx="0" cy="24" r="1.2" fill="#0a0806" opacity="0.75"/>
      <circle cx="-24" cy="0" r="1" fill="#0a0806" opacity="0.65"/>
      <circle cx="24" cy="0" r="1" fill="#0a0806" opacity="0.65"/>
      <circle cx="0" cy="0" r="1.8" fill="#f8efd6" opacity="0.55"/>
    </g>
    <pattern id="rd-tile" x="0" y="0" width="90" height="156"
             patternUnits="userSpaceOnUse" patternTransform="translate(155 161)">
      <rect width="90" height="156" fill="#ebe0c8"/>
      <g stroke="#3a2a1e" stroke-width="0.7" fill="none" opacity="0.55" stroke-linecap="round">
        <line x1="45" y1="39" x2="0" y2="117"/>
        <line x1="45" y1="39" x2="90" y2="117"/>
        <line x1="45" y1="39" x2="0" y2="-39"/>
        <line x1="45" y1="39" x2="90" y2="-39"/>
        <line x1="0" y1="117" x2="45" y2="195"/>
        <line x1="90" y1="117" x2="45" y2="195"/>
      </g>
      <g transform="translate(45 39) scale(0.5)" filter="url(#bleed-fx)"><use href="#damask"/></g>
      <g transform="translate(0 117) scale(0.5)" filter="url(#bleed-fx)"><use href="#damask"/></g>
      <g transform="translate(90 117) scale(0.5)" filter="url(#bleed-fx)"><use href="#damask"/></g>
    </pattern>
    <pattern id="grain-tile" x="0" y="0" width="200" height="200" patternUnits="userSpaceOnUse">
      <rect width="200" height="200" fill="transparent" filter="url(#grain-fx)"/>
    </pattern>
    <radialGradient id="pat-vig" cx="50%" cy="50%" r="80%">
      <stop offset="60%" stop-color="white" stop-opacity="0"/>
      <stop offset="100%" stop-color="black" stop-opacity="0.6"/>
    </radialGradient>
    <radialGradient id="tile-hi" cx="30%" cy="30%" r="50%">
      <stop offset="0%" stop-color="white" stop-opacity="0.08"/>
      <stop offset="100%" stop-color="white" stop-opacity="0"/>
    </radialGradient>
    <radialGradient id="tile-vig" cx="50%" cy="50%" r="50%">
      <stop offset="50%" stop-color="black" stop-opacity="0"/>
      <stop offset="100%" stop-color="black" stop-opacity="0.45"/>
    </radialGradient>
  </defs>
  <rect width="400" height="400" fill="#ebe0c8" rx="88" ry="88"/>
  <rect width="400" height="400" fill="url(#rd-tile)" rx="88" ry="88"/>
  <rect width="400" height="400" fill="url(#grain-tile)" rx="88" ry="88" opacity="0.22" style="mix-blend-mode:multiply"/>
  <rect width="400" height="400" fill="url(#pat-vig)" rx="88" ry="88" opacity="0.35"/>
  <rect width="400" height="400" fill="url(#tile-hi)" rx="88" ry="88"/>
  <rect width="400" height="400" fill="url(#tile-vig)" rx="88" ry="88"/>
  <circle cx="200" cy="200" r="130" fill="#ebe0c8"/>
  <circle cx="200" cy="200" r="130" fill="none" stroke="#0a0806" stroke-width="2" opacity="0.92"/>
  <circle cx="200" cy="200" r="118" fill="none" stroke="#0a0806" stroke-width="0.8" opacity="0.55"/>
  <circle cx="200" cy="76"  r="2.1" fill="#0a0806" opacity="0.85"/>
  <circle cx="200" cy="324" r="2.1" fill="#0a0806" opacity="0.85"/>
  <circle cx="76"  cy="200" r="2.1" fill="#0a0806" opacity="0.85"/>
  <circle cx="324" cy="200" r="2.1" fill="#0a0806" opacity="0.85"/>
  <text x="200" y="200"
        text-anchor="middle"
        dominant-baseline="central"
        font-family="'Bodoni Moda','Bodoni 72',Didot,'Times New Roman',Georgia,serif"
        font-weight="400"
        font-size="200"
        fill="#0a0806"
        style="letter-spacing:-0.03em;font-style:normal;">C</text>
</svg>
