<svg xmlns="http://www.w3.org/2000/svg" viewBox="0 0 400 400" width="400" height="400">
  <title>Linette — Monochrome</title>
  <defs>
    <filter id="grain-fx">
      <feTurbulence type="fractalNoise" baseFrequency="1.8" numOctaves="2" seed="4"/>
      <feColorMatrix values="0 0 0 0 0.2  0 0 0 0 0.15  0 0 0 0 0.1  0 0 0 0.18 0"/>
      <feComposite operator="in" in2="SourceGraphic"/>
    </filter>
    <filter id="bleed-fx" x="-10%" y="-10%" width="120%" height="120%">
      <feTurbulence type="fractalNoise" baseFrequency="0.04" numOctaves="2" seed="3"/>
      <feDisplacementMap in="SourceGraphic" scale="2.5"/>
    </filter>
    <g id="damask">
      <path d="M0 -18 Q 8 -10 0 0 Q -8 -10 0 -18 Z" fill="#000000" opacity="0.95"/>
      <path d="M0 0 Q 8 10 0 18 Q -8 10 0 0 Z" fill="#000000" opacity="0.95"/>
      <path d="M-18 0 Q -10 -8 0 0 Q -10 8 -18 0 Z" fill="#000000" opacity="0.9"/>
      <path d="M18 0 Q 10 -8 0 0 Q 10 8 18 0 Z" fill="#000000" opacity="0.9"/>
      <path d="M0 -17 Q 13 -23 16 -12 Q 14 -6 7 -8" fill="none" stroke="#000000" stroke-width="1.1" stroke-linecap="round" opacity="0.85"/>
      <path d="M0 -17 Q -13 -23 -16 -12 Q -14 -6 -7 -8" fill="none" stroke="#000000" stroke-width="1.1" stroke-linecap="round" opacity="0.85"/>
      <path d="M0 17 Q 13 23 16 12 Q 14 6 7 8" fill="none" stroke="#000000" stroke-width="1.1" stroke-linecap="round" opacity="0.85"/>
      <path d="M0 17 Q -13 23 -16 12 Q -14 6 -7 8" fill="none" stroke="#000000" stroke-width="1.1" stroke-linecap="round" opacity="0.85"/>
      <circle cx="0" cy="-24" r="1.2" fill="#000000" opacity="0.75"/>
      <circle cx="0" cy="24" r="1.2" fill="#000000" opacity="0.75"/>
      <circle cx="-24" cy="0" r="1" fill="#000000" opacity="0.65"/>
      <circle cx="24" cy="0" r="1" fill="#000000" opacity="0.65"/>
      <circle cx="0" cy="0" r="1.8" fill="#f4f4f4" opacity="0.55"/>
    </g>
    <pattern id="rd-tile" x="0" y="0" width="56" height="97"
             patternUnits="userSpaceOnUse" patternTransform="translate(172 176)">
      <rect width="56" height="97" fill="#ffffff"/>
      <g stroke="#1a1a1a" stroke-width="0.7" fill="none" opacity="0.55" stroke-linecap="round">
        <line x1="28" y1="24" x2="0"  y2="73"/>
        <line x1="28" y1="24" x2="56" y2="73"/>
        <line x1="28" y1="24" x2="0"  y2="-24"/>
        <line x1="28" y1="24" x2="56" y2="-24"/>
        <line x1="0"  y1="73" x2="28" y2="121"/>
        <line x1="56" y1="73" x2="28" y2="121"/>
      </g>
      <g transform="translate(28 24) scale(0.35)" filter="url(#bleed-fx)"><use href="#damask"/></g>
      <g transform="translate(0  73) scale(0.35)" filter="url(#bleed-fx)"><use href="#damask"/></g>
      <g transform="translate(56 73) scale(0.35)" filter="url(#bleed-fx)"><use href="#damask"/></g>
    </pattern>
    <pattern id="grain-tile" x="0" y="0" width="200" height="200" patternUnits="userSpaceOnUse">
      <rect width="200" height="200" fill="transparent" filter="url(#grain-fx)"/>
    </pattern>
    <radialGradient id="pat-vig" cx="50%" cy="50%" r="80%">
      <stop offset="60%" stop-color="white" stop-opacity="0"/>
      <stop offset="100%" stop-color="black" stop-opacity="0.6"/>
    </radialGradient>
    <radialGradient id="tile-hi" cx="30%" cy="30%" r="50%">
      <stop offset="0%" stop-color="white" stop-opacity="0.08"/>
      <stop offset="100%" stop-color="white" stop-opacity="0"/>
    </radialGradient>
    <radialGradient id="tile-vig" cx="50%" cy="50%" r="50%">
      <stop offset="50%" stop-color="black" stop-opacity="0"/>
      <stop offset="100%" stop-color="black" stop-opacity="0.45"/>
    </radialGradient>
  </defs>
  <rect width="400" height="400" fill="#ffffff" rx="88" ry="88"/>
  <rect width="400" height="400" fill="url(#rd-tile)" rx="88" ry="88" opacity="0.32"/>
  <rect width="400" height="400" fill="url(#grain-tile)" rx="88" ry="88" opacity="0.22" style="mix-blend-mode:multiply"/>
  <rect width="400" height="400" fill="url(#pat-vig)" rx="88" ry="88" opacity="0.35"/>
  <rect width="400" height="400" fill="url(#tile-hi)" rx="88" ry="88"/>
  <rect width="400" height="400" fill="url(#tile-vig)" rx="88" ry="88"/>
  <circle cx="200" cy="200" r="130" fill="#ffffff"/>
  <circle cx="200" cy="200" r="130" fill="none" stroke="#000000" stroke-width="3" opacity="0.92"/>
  <circle cx="200" cy="200" r="118" fill="none" stroke="#000000" stroke-width="1" opacity="0.55"/>
  <circle cx="200" cy="76"  r="2.1" fill="#000000" opacity="0.85"/>
  <circle cx="200" cy="324" r="2.1" fill="#000000" opacity="0.85"/>
  <circle cx="76"  cy="200" r="2.1" fill="#000000" opacity="0.85"/>
  <circle cx="324" cy="200" r="2.1" fill="#000000" opacity="0.85"/>
  <!-- Parisienne L as an SVG <path>, extracted from Parisienne-Regular.ttf
       via scripts/extract-l-path.mjs. Embedded as a path (not <text>)
       so the icon renders identically in every browser and every
       rasterizer (sharp, Satori, native favicon) without depending on
       the Parisienne font being installed or web-loaded. -->
  <path fill="#000000" d="M215.53 277.54L215.53 277.54Q209.18 277.54 202.69 276.42Q196.19 275.29 189.55 273.49Q182.91 271.68 176.27 269.53Q169.63 267.38 163.18 265.33L163.18 265.33Q155.47 270.02 147.07 272.71Q138.67 275.39 129.39 275.39L129.39 275.39Q121.48 275.39 117.29 272.56Q113.09 269.73 113.09 265.04L113.09 265.04Q113.09 258.89 119.92 255.57Q126.76 252.25 140.63 252.25L140.63 252.25Q146.68 252.25 152.83 253.13Q158.98 254.00 165.33 255.37L165.33 255.37Q171.48 250 177.05 243.26Q182.62 236.52 187.89 228.81L187.89 228.81Q183.89 229.30 179.79 229.54Q175.68 229.79 171.48 229.79L171.48 229.79Q156.15 229.79 144.14 226.12Q132.13 222.46 123.83 216.06Q115.53 209.67 111.18 201.03Q106.84 192.38 106.84 182.42L106.84 182.42Q106.84 170.70 111.33 161.62Q115.82 152.54 123.68 146.34Q131.54 140.14 142.19 136.87Q152.83 133.59 165.04 133.59L165.04 133.59Q172.75 133.59 179.10 134.77Q185.45 135.94 190.09 137.30Q194.73 138.67 197.36 139.94Q200 141.21 200.29 141.31L200.29 141.31L197.75 145.70Q197.66 145.70 195.31 144.58Q192.97 143.46 188.87 142.19Q184.77 140.92 179.10 139.84Q173.44 138.77 166.89 138.77L166.89 138.77Q155.37 138.77 146.24 142.14Q137.11 145.51 130.81 151.37Q124.51 157.23 121.14 165.09Q117.77 172.95 117.77 181.84L117.77 181.84Q117.77 191.80 122.36 199.66Q126.95 207.52 134.67 212.94Q142.38 218.36 152.59 221.19Q162.79 224.02 174.02 224.02L174.02 224.02Q178.61 224.02 183.06 223.73Q187.50 223.44 191.89 222.75L191.89 222.75Q198.83 211.91 205.32 200.29Q211.82 188.67 218.26 177.54Q224.71 166.41 231.25 156.40Q237.79 146.39 244.87 138.87Q251.95 131.35 259.77 126.90Q267.58 122.46 276.56 122.46L276.56 122.46Q280.08 122.46 283.11 123.58Q286.13 124.71 288.38 127.00Q290.63 129.30 291.89 132.81Q293.16 136.33 293.16 141.02L293.16 141.02Q293.16 148.63 290.23 157.08Q287.30 165.53 281.74 173.97Q276.17 182.42 268.16 190.58Q260.16 198.73 250 205.66Q239.84 212.60 227.73 218.02Q215.63 223.44 201.95 226.46L201.95 226.46Q195.51 235.35 188.67 243.21Q181.84 251.07 174.22 257.42L174.22 257.42Q181.64 259.38 188.77 261.57Q195.90 263.77 202.29 265.58Q208.69 267.38 214.16 268.60Q219.63 269.82 223.83 269.82L223.83 269.82Q230.08 269.82 235.89 267.68Q241.70 265.53 247.46 260.06L247.46 260.06L251.46 263.18Q251.37 263.28 250.39 264.40Q249.41 265.53 247.46 267.14Q245.51 268.75 242.58 270.56Q239.65 272.36 235.69 273.93Q231.74 275.49 226.71 276.51Q221.68 277.54 215.53 277.54ZM276.95 127.83L276.95 127.83Q271.48 127.83 266.11 131.74Q260.74 135.64 255.27 142.33Q249.80 149.02 244.19 158.06Q238.57 167.09 232.62 177.29Q226.66 187.50 220.21 198.34Q213.77 209.18 206.74 219.63L206.74 219.63Q218.46 216.41 229.05 211.23Q239.65 206.05 248.68 199.61Q257.71 193.16 264.99 185.79Q272.27 178.42 277.39 170.70Q282.52 162.99 285.25 155.42Q287.99 147.85 287.99 140.92L287.99 140.92Q287.99 137.30 287.11 134.81Q286.23 132.32 284.72 130.76Q283.20 129.20 281.20 128.52Q279.20 127.83 276.95 127.83ZM128.81 270.31L128.81 270.31Q136.04 270.31 142.48 268.31Q148.93 266.31 154.98 262.79L154.98 262.79Q148.54 260.94 142.53 259.77Q136.52 258.59 130.96 258.59L130.96 258.59Q124.32 258.59 121.24 260.55Q118.16 262.50 118.16 265.04L118.16 265.04Q118.16 265.82 118.60 266.75Q119.04 267.68 120.21 268.46Q121.39 269.24 123.44 269.78Q125.49 270.31 128.81 270.31Z"/>
</svg>
