<?xml version="1.0" encoding="UTF-8"?>
<!-- Splash V3 — Radial gradient (vermillion core, navy edges, green below).
     "Closette" rendered as Playfair Display vector paths (weight 400) so
     there's no font dependency at render time. -->
<svg viewBox="0 0 1170 2532" xmlns="http://www.w3.org/2000/svg">
  <defs>
    <radialGradient id="bg" cx="50%" cy="50%" r="70%">
      <stop offset="0%"   stop-color="#bf3f2f"/>
      <stop offset="40%"  stop-color="#5a1e2a"/>
      <stop offset="100%" stop-color="#0d1a2b"/>
    </radialGradient>
    <linearGradient id="greenTint" x1="0%" y1="50%" x2="0%" y2="100%">
      <stop offset="0%"   stop-color="#234233" stop-opacity="0"/>
      <stop offset="100%" stop-color="#234233" stop-opacity="0.55"/>
    </linearGradient>
  </defs>

  <rect width="1170" height="2532" fill="url(#bg)"/>
  <rect width="1170" height="2532" fill="url(#greenTint)"/>

  <!-- Playfair Display weight 500 "Closette" at ~260 units, centered at (585, 1266).
       Weight matches the icon C so the wordmark reads as the same typographic
       family — editorial continuity from icon to splash. -->
  <g transform="translate(101.4, 1366.1)">
    <path
      fill="#ffffff"
      stroke="#0d1a2b"
      stroke-width="6"
      paint-order="stroke"
      d="M98.80-187.72L98.80-187.72Q115.96-187.72 127.01-182.65Q138.06-177.58 146.64-170.82L146.64-170.82Q151.84-166.92 154.57-169.91Q157.30-172.90 158.34-184.08L158.34-184.08L164.32-184.08Q163.80-174.20 163.54-160.29Q163.28-146.38 163.28-123.24L163.28-123.24L157.30-123.24Q155.48-134.68 153.79-141.96Q152.10-149.24 149.37-154.44Q146.64-159.64 141.96-164.58L141.96-164.58Q134.42-173.94 123.50-178.10Q112.58-182.26 100.36-182.26L100.36-182.26Q87.10-182.26 76.96-175.63Q66.82-169 59.93-156.78Q53.04-144.56 49.40-127.92Q45.76-111.28 45.76-91.52L45.76-91.52Q45.76-71.24 49.66-54.73Q53.56-38.22 60.97-26.39Q68.38-14.56 78.91-8.19Q89.44-1.82 102.44-1.82L102.44-1.82Q113.10-1.82 124.54-6.11Q135.98-10.40 142.74-19.24L142.74-19.24Q150.02-27.04 152.75-36.79Q155.48-46.54 157.30-63.44L157.30-63.44L163.28-63.44Q163.28-39.52 163.54-24.83Q163.80-10.14 164.32 0L164.32 0L158.34 0Q157.30-11.18 154.83-14.04Q152.36-16.90 146.64-13.26L146.64-13.26Q137.02-6.50 126.23-1.43Q115.44 3.64 98.54 3.64L98.54 3.64Q72.80 3.64 53.56-7.54Q34.32-18.72 23.66-39.78Q13-60.84 13-90.48L13-90.48Q13-119.60 24.05-141.44Q35.10-163.28 54.34-175.50Q73.58-187.72 98.80-187.72ZM232.70-203.84L232.70-203.84L232.70-24.18Q232.70-13.26 236.99-9.36Q241.28-5.46 251.42-5.46L251.42-5.46L251.42 0Q247-0.26 237.64-0.65Q228.28-1.04 218.92-1.04L218.92-1.04Q209.56-1.04 200.07-0.65Q190.58-0.26 185.90 0L185.90 0L185.90-5.46Q196.04-5.46 200.33-9.36Q204.62-13.26 204.62-24.18L204.62-24.18L204.62-172.64Q204.62-184.34 200.72-189.93Q196.82-195.52 185.90-195.52L185.90-195.52L185.90-200.98Q194.22-200.20 202.02-200.20L202.02-200.20Q210.60-200.20 218.40-201.11Q226.20-202.02 232.70-203.84ZM328.90-137.80L328.90-137.80Q346.32-137.80 359.84-130.52Q373.36-123.24 381.42-107.64Q389.48-92.04 389.48-66.82L389.48-66.82Q389.48-41.60 381.42-26.13Q373.36-10.66 359.84-3.51Q346.32 3.64 328.90 3.64L328.90 3.64Q311.74 3.64 297.96-3.51Q284.18-10.66 276.25-26.13Q268.32-41.60 268.32-66.82L268.32-66.82Q268.32-92.04 276.25-107.64Q284.18-123.24 297.96-130.52Q311.74-137.80 328.90-137.80ZM328.90-132.60L328.90-132.60Q315.38-132.60 306.80-117.13Q298.22-101.66 298.22-66.82L298.22-66.82Q298.22-31.98 306.80-16.77Q315.38-1.56 328.90-1.56L328.90-1.56Q342.16-1.56 350.87-16.77Q359.58-31.98 359.58-66.82L359.58-66.82Q359.58-101.66 350.87-117.13Q342.16-132.60 328.90-132.60ZM456.30-137.80L456.30-137.80Q466.70-137.80 474.37-134.55Q482.04-131.30 485.42-128.70L485.42-128.70Q488.80-126.10 491.14-126.88L491.14-126.88Q494.78-127.92 496.08-137.54L496.08-137.54L501.80-137.54Q501.28-130.26 501.02-119.99Q500.76-109.72 500.76-92.82L500.76-92.82L495.04-92.82Q493.48-102.44 489.71-111.54Q485.94-120.64 478.79-126.62Q471.64-132.60 460.20-132.60L460.20-132.60Q451.62-132.60 445.90-127.79Q440.18-122.98 440.18-113.62L440.18-113.62Q440.18-105.82 444.86-100.10Q449.54-94.38 457.08-89.44L457.08-89.44L472.94-78.78Q482.56-72.28 490.23-65.91Q497.90-59.54 502.45-51.74Q507.00-43.94 507.00-33.54L507.00-33.54Q507.00-21.58 500.63-13.26Q494.26-4.94 483.86-0.65Q473.46 3.64 460.98 3.64L460.98 3.64Q454.74 3.64 449.28 2.47Q443.82 1.30 439.14-0.52L439.14-0.52Q436.28-2.08 433.55-3.77Q430.82-5.46 428.22-7.02L428.22-7.02Q425.62-8.84 423.54-6.50Q421.46-4.16 420.42 1.82L420.42 1.82L414.70 1.82Q415.22-6.50 415.48-18.46Q415.74-30.42 415.74-50.18L415.74-50.18L421.46-50.18Q423.28-35.88 426.92-24.96Q430.56-14.04 437.71-7.93Q444.86-1.82 457.34-1.82L457.34-1.82Q462.28-1.82 467.22-4.03Q472.16-6.24 475.41-11.18Q478.66-16.12 478.66-24.44L478.66-24.44Q478.66-35.88 470.73-43.29Q462.80-50.70 450.32-59.02L450.32-59.02Q441.48-65.26 433.55-71.37Q425.62-77.48 420.68-85.15Q415.74-92.82 415.74-103.48L415.74-103.48Q415.74-115.18 421.33-122.72Q426.92-130.26 436.28-134.03Q445.64-137.80 456.30-137.80ZM589.94-137.80L589.94-137.80Q612.82-137.80 625.82-124.02Q638.82-110.24 638.82-80.34L638.82-80.34L560.30-80.34Q560.04-77.22 559.78-73.84L559.78-73.84Q559.52-69.42 559.52-65.26L559.52-65.26Q559.52-47.32 564.98-35.10Q570.44-22.88 579.28-16.77Q588.12-10.66 597.22-10.66L597.22-10.66Q604.24-10.66 610.87-12.87Q617.50-15.08 623.48-20.41Q629.46-25.74 634.14-35.10L634.14-35.10L639.34-33.02Q636.22-24.18 629.72-15.60Q623.22-7.02 613.08-1.69Q602.94 3.64 589.42 3.64L589.42 3.64Q571.22 3.64 557.70-4.55Q544.18-12.74 536.90-28.08Q529.62-43.42 529.62-64.48L529.62-64.48Q529.62-87.62 537.16-104Q544.70-120.38 558.35-129.09Q572-137.80 589.94-137.80ZM559.78-85.28L559.78-85.28L611.26-85.28Q611.52-98.02 609.18-108.81Q606.84-119.60 601.90-126.10Q596.96-132.60 588.90-132.60L588.90-132.60Q577.72-132.60 569.66-120.90L569.66-120.90Q561.60-109.46 559.78-85.28ZM702.26-177.06L702.26-177.06L702.26-133.90L738.14-133.90L738.14-128.70L702.26-128.70L702.26-26.52Q702.26-15.86 706.16-11.44Q710.06-7.02 717.34-7.02L717.34-7.02Q724.10-7.02 729.43-12.48Q734.76-17.94 738.66-30.94L738.66-30.94L743.60-29.12Q740.48-15.34 732.55-5.85Q724.62 3.64 709.28 3.64L709.28 3.64Q700.44 3.64 694.46 1.43Q688.48-0.78 684.06-4.94L684.06-4.94Q678.34-10.92 676.26-19.24Q674.18-27.56 674.18-41.34L674.18-41.34L674.18-128.70L650.26-128.70L650.26-133.90L674.18-133.90L674.18-171.86Q682.24-172.12 689.26-173.29Q696.28-174.46 702.26-177.06ZM794.04-177.06L794.04-177.06L794.04-133.90L829.92-133.90L829.92-128.70L794.04-128.70L794.04-26.52Q794.04-15.86 797.94-11.44Q801.84-7.02 809.12-7.02L809.12-7.02Q815.88-7.02 821.21-12.48Q826.54-17.94 830.44-30.94L830.44-30.94L835.38-29.12Q832.26-15.34 824.33-5.85Q816.40 3.64 801.06 3.64L801.06 3.64Q792.22 3.64 786.24 1.43Q780.26-0.78 775.84-4.94L775.84-4.94Q770.12-10.92 768.04-19.24Q765.96-27.56 765.96-41.34L765.96-41.34L765.96-128.70L742.04-128.70L742.04-133.90L765.96-133.90L765.96-171.86Q774.02-172.12 781.04-173.29Q788.06-174.46 794.04-177.06ZM904.80-137.80L904.80-137.80Q927.68-137.80 940.68-124.02Q953.68-110.24 953.68-80.34L953.68-80.34L875.16-80.34Q874.90-77.22 874.64-73.84L874.64-73.84Q874.38-69.42 874.38-65.26L874.38-65.26Q874.38-47.32 879.84-35.10Q885.30-22.88 894.14-16.77Q902.98-10.66 912.08-10.66L912.08-10.66Q919.10-10.66 925.73-12.87Q932.36-15.08 938.34-20.41Q944.32-25.74 949-35.10L949-35.10L954.20-33.02Q951.08-24.18 944.58-15.60Q938.08-7.02 927.94-1.69Q917.80 3.64 904.28 3.64L904.28 3.64Q886.08 3.64 872.56-4.55Q859.04-12.74 851.76-28.08Q844.48-43.42 844.48-64.48L844.48-64.48Q844.48-87.62 852.02-104Q859.56-120.38 873.21-129.09Q886.86-137.80 904.80-137.80ZM874.64-85.28L874.64-85.28L926.12-85.28Q926.38-98.02 924.04-108.81Q921.70-119.60 916.76-126.10Q911.82-132.60 903.76-132.60L903.76-132.60Q892.58-132.60 884.52-120.90L884.52-120.90Q876.46-109.46 874.64-85.28Z"
    />
  </g>
</svg>
